<?xml version="1.0" encoding="utf-8"?>
<svg viewBox="158.3781 109.5796 62 62.24" xmlns="http://www.w3.org/2000/svg">
    <g transform="matrix(1, 0, 0, 1, 139.3780517578125, 90.81955718994142)">
        <circle cx="26" cy="78" r="3"/>
        <circle cx="42" cy="78" r="3"/>
        <circle cx="58" cy="78" r="3"/>
        <circle cx="74" cy="78" r="3"/>
        <path d="M64,30v6a11,11,0,0,1,0,22H36a11,11,0,0,1,0-22H46.76l-7,7L44,47.24,56.12,35.12a3,3,0,0,0,0-4.24L44,18.76,39.76,23l7,7H36a17,17,0,0,0,0,34H64a17,17,0,0,0,0-34Z"/>
    </g>
</svg>